<?xml version="1.0" encoding="UTF-8" standalone="no"?>
<svg
   xmlns:dc="http://purl.org/dc/elements/1.1/"
   xmlns:cc="http://creativecommons.org/ns#"
   xmlns:rdf="http://www.w3.org/1999/02/22-rdf-syntax-ns#"
   xmlns:svg="http://www.w3.org/2000/svg"
   xmlns="http://www.w3.org/2000/svg"
   xmlns:sodipodi="http://sodipodi.sourceforge.net/DTD/sodipodi-0.dtd"
   xmlns:inkscape="http://www.inkscape.org/namespaces/inkscape"
   width="20"
   height="20"
   id="svg3026"
   version="1.1"
   inkscape:version="0.92.4 (5da689c313, 2019-01-14)"
   sodipodi:docname="back_arrow.svg">
  <metadata
     id="metadata3038">
    <rdf:RDF>
      <cc:Work
         rdf:about="">
        <dc:format>image/svg+xml</dc:format>
        <dc:type
           rdf:resource="http://purl.org/dc/dcmitype/StillImage" />
        <dc:title />
      </cc:Work>
    </rdf:RDF>
  </metadata>
  <defs
     id="defs3036">
    <linearGradient
       id="linearGradient4006">
      <stop
         style="stop-color:#252525;stop-opacity:1;"
         offset="0"
         id="stop4008" />
      <stop
         style="stop-color:#4a4a4a;stop-opacity:1;"
         offset="1"
         id="stop4010" />
    </linearGradient>
  </defs>
  <sodipodi:namedview
     pagecolor="#ffffff"
     bordercolor="#666666"
     borderopacity="1"
     objecttolerance="10"
     gridtolerance="10"
     guidetolerance="10"
     inkscape:pageopacity="0"
     inkscape:pageshadow="2"
     inkscape:window-width="1920"
     inkscape:window-height="1001"
     id="namedview3034"
     showgrid="true"
     inkscape:zoom="20.48"
     inkscape:cx="3.1881037"
     inkscape:cy="13.13282"
     inkscape:window-x="-9"
     inkscape:window-y="-9"
     inkscape:window-maximized="1"
     inkscape:current-layer="g3028">
    <inkscape:grid
       type="xygrid"
       id="grid3040" />
  </sodipodi:namedview>
  <g
     id="g3028"
     stroke-width="2.23"
     stroke="#d40000">
    <path
       inkscape:connector-curvature="0"
       d="m 10.000003,19.908097 c -5.4734259,0 -9.90809918,-4.434673 -9.90809918,-9.9080994 0,-5.473421 4.43467328,-9.90809416 9.90809918,-9.90809416 5.47342,0 9.908093,4.43467316 9.908093,9.90809416 0,5.4734264 -4.434673,9.9080994 -9.908093,9.9080994 z m 1.154612,-5.737109 -3.0163773,-2.892523 h 7.2952373 c 0.531361,0 0.958846,-0.427486 0.958846,-0.958852 V 9.6803816 c 0,-0.5313606 -0.427485,-0.958846 -0.958846,-0.958846 H 8.1382377 L 11.154615,5.8290124 c 0.387532,-0.3715585 0.395522,-0.9908099 0.016,-1.370358 L 10.731146,4.0231793 c -0.375553,-0.3755478 -0.9828198,-0.3755478 -1.3543729,0 L 4.0751392,9.3208126 c -0.3755479,0.375554 -0.3755479,0.9828214 0,1.3543744 l 5.3016339,5.301634 c 0.3755478,0.375548 0.9828199,0.375548 1.3543729,0 l 0.43947,-0.43548 c 0.379542,-0.379543 0.371553,-0.9988 -0.016,-1.370353 z"
       id="path2-8"
       style="stroke:none;stroke-width:0.08909297;fill:#ffffff" />
  </g>
</svg>
