<?xml version="1.0" encoding="UTF-8" standalone="no"?>
<svg
   xmlns:dc="http://purl.org/dc/elements/1.1/"
   xmlns:cc="http://creativecommons.org/ns#"
   xmlns:rdf="http://www.w3.org/1999/02/22-rdf-syntax-ns#"
   xmlns:svg="http://www.w3.org/2000/svg"
   xmlns="http://www.w3.org/2000/svg"
   xmlns:sodipodi="http://sodipodi.sourceforge.net/DTD/sodipodi-0.dtd"
   xmlns:inkscape="http://www.inkscape.org/namespaces/inkscape"
   width="20"
   height="20"
   id="svg3026"
   version="1.1"
   inkscape:version="0.92.4 (5da689c313, 2019-01-14)"
   sodipodi:docname="login-successful.svg">
  <metadata
     id="metadata3038">
    <rdf:RDF>
      <cc:Work
         rdf:about="">
        <dc:format>image/svg+xml</dc:format>
        <dc:type
           rdf:resource="http://purl.org/dc/dcmitype/StillImage" />
        <dc:title></dc:title>
      </cc:Work>
    </rdf:RDF>
  </metadata>
  <defs
     id="defs3036">
    <linearGradient
       id="linearGradient4006">
      <stop
         style="stop-color:#252525;stop-opacity:1;"
         offset="0"
         id="stop4008" />
      <stop
         style="stop-color:#4a4a4a;stop-opacity:1;"
         offset="1"
         id="stop4010" />
    </linearGradient>
  </defs>
  <sodipodi:namedview
     pagecolor="#ffffff"
     bordercolor="#666666"
     borderopacity="1"
     objecttolerance="10"
     gridtolerance="10"
     guidetolerance="10"
     inkscape:pageopacity="0"
     inkscape:pageshadow="2"
     inkscape:window-width="1920"
     inkscape:window-height="1001"
     id="namedview3034"
     showgrid="true"
     inkscape:zoom="28.963094"
     inkscape:cx="10.144332"
     inkscape:cy="9.023569"
     inkscape:window-x="-9"
     inkscape:window-y="-9"
     inkscape:window-maximized="1"
     inkscape:current-layer="g3028">
    <inkscape:grid
       type="xygrid"
       id="grid3040" />
  </sodipodi:namedview>
  <g
     id="g3028"
     style="stroke:#d40000;stroke-width:2.23000002">
    <circle
       style="fill:#033949;fill-opacity:1;stroke:none;stroke-width:5.26110363"
       id="path4552"
       cx="10"
       cy="10"
       r="9.4369564" />
    <path
       style="fill:#a3ff15;stroke:none;stroke-width:0.0189092;fill-opacity:0.9678899"
       inkscape:connector-curvature="0"
       d="m 15.605083,15.044577 c 0,0.254774 -0.203821,0.509553 -0.509553,0.509553 -0.254777,0 -0.50955,-0.203821 -0.50955,-0.509553 v -0.05092 c 0,0 0,-0.05092 0,-0.05092 -0.305731,-2.242035 -2.242036,-3.872602 -4.535024,-3.872602 0,0 -0.05094,0 -0.05094,0 0,0 -0.05094,0 -0.05094,0 -2.292989,0 -4.1783333,1.630567 -4.5350184,3.821648 0,0.05093 0,0.101917 0,0.15287 v 0.05093 c 0,0.305732 -0.2547785,0.509551 -0.5095571,0.509551 -0.2547724,0 -0.5095509,-0.254772 -0.5095509,-0.509551 v 0 0 c 0,0 0,-0.05093 0,-0.05093 0,-0.05092 0,-0.101917 0,-0.101917 0.2547835,-2.038217 1.6305767,-3.719741 3.515921,-4.433118 C 6.8408094,9.7962424 6.127433,8.5733147 6.127433,7.1975208 c 0,-2.191075 1.6815253,-3.9235531 3.872607,-3.9235531 2.191076,0 3.872602,1.7834304 3.872602,3.9235531 0,1.4267535 -0.713377,2.6496806 -1.783438,3.3120972 1.83439,0.713377 3.210182,2.343941 3.515916,4.382158 0,0 0,0.05093 0,0.152869 z M 12.955408,7.146504 c 0,-1.6305721 -1.324839,-2.9554058 -2.955406,-2.9554058 -1.6305706,0 -2.9554107,1.3248337 -2.9554107,2.9554058 0,1.6305715 1.3248401,2.955404 2.9554107,2.955404 1.630567,0 2.955406,-1.3248325 2.955406,-2.955404 z m -2.955406,12.535005 c -5.350306,0 -9.6815112,-4.3312 -9.6815112,-9.681507 0,-5.3503054 4.3312052,-9.68151095 9.6815112,-9.68151095 5.350307,0 9.681507,4.33120555 9.681507,9.68151095 0,5.350307 -4.3312,9.681507 -9.681507,9.681507 z m 0,-18.4967765 c -4.840755,0 -8.8152689,3.923561 -8.8152689,8.8152695 0,4.891711 3.9235607,8.815263 8.8152689,8.815263 4.891711,0 8.815266,-3.923552 8.815266,-8.815263 0,-4.8917085 -3.974515,-8.8152695 -8.815266,-8.8152695 z"
       id="path2" />
  </g>
</svg>
