<?xml version="1.0" encoding="UTF-8" standalone="no"?>
<svg
   xmlns:dc="http://purl.org/dc/elements/1.1/"
   xmlns:cc="http://creativecommons.org/ns#"
   xmlns:rdf="http://www.w3.org/1999/02/22-rdf-syntax-ns#"
   xmlns:svg="http://www.w3.org/2000/svg"
   xmlns="http://www.w3.org/2000/svg"
   xmlns:sodipodi="http://sodipodi.sourceforge.net/DTD/sodipodi-0.dtd"
   xmlns:inkscape="http://www.inkscape.org/namespaces/inkscape"
   width="20"
   height="20"
   id="svg3026"
   version="1.1"
   inkscape:version="0.92.4 (5da689c313, 2019-01-14)"
   sodipodi:docname="login.svg">
  <metadata
     id="metadata3038">
    <rdf:RDF>
      <cc:Work
         rdf:about="">
        <dc:format>image/svg+xml</dc:format>
        <dc:type
           rdf:resource="http://purl.org/dc/dcmitype/StillImage" />
        <dc:title></dc:title>
      </cc:Work>
    </rdf:RDF>
  </metadata>
  <defs
     id="defs3036">
    <linearGradient
       id="linearGradient4006">
      <stop
         style="stop-color:#252525;stop-opacity:1;"
         offset="0"
         id="stop4008" />
      <stop
         style="stop-color:#4a4a4a;stop-opacity:1;"
         offset="1"
         id="stop4010" />
    </linearGradient>
  </defs>
  <sodipodi:namedview
     pagecolor="#ffffff"
     bordercolor="#666666"
     borderopacity="1"
     objecttolerance="10"
     gridtolerance="10"
     guidetolerance="10"
     inkscape:pageopacity="0"
     inkscape:pageshadow="2"
     inkscape:window-width="1920"
     inkscape:window-height="1001"
     id="namedview3034"
     showgrid="true"
     inkscape:zoom="256"
     inkscape:cx="11.892624"
     inkscape:cy="-0.2434039"
     inkscape:window-x="-9"
     inkscape:window-y="-9"
     inkscape:window-maximized="1"
     inkscape:current-layer="g3028">
    <inkscape:grid
       type="xygrid"
       id="grid3040" />
  </sodipodi:namedview>
  <g
     id="g3028"
     stroke-width="2.23"
     stroke="#d40000">
    <g
       transform="matrix(0.03516906,0,0,0.03513872,1.0055947,1.0224067)"
       id="g3844"
       style="fill:#ffffff;stroke:none">
      <g
         id="g3842"
         style="fill:#ffffff;stroke:none">
        <g
           id="g3840"
           style="fill:#ffffff;stroke:none">
          <path
             inkscape:connector-curvature="0"
             d="M 131.5,472 H 60.693 c -8.538,0 -13.689,-4.765 -15.999,-7.606 -3.988,-4.906 -5.533,-11.29 -4.236,-17.519 20.769,-99.761 108.809,-172.616 210.445,-174.98 1.693,0.063 3.39,0.105 5.097,0.105 1.722,0 3.434,-0.043 5.142,-0.107 24.853,0.567 49.129,5.24 72.236,13.917 10.34,3.885 21.871,-1.352 25.754,-11.693 3.883,-10.34 -1.352,-21.871 -11.693,-25.754 -3.311,-1.244 -6.645,-2.408 -9.995,-3.512 C 370.545,220.021 392,180.469 392,136 392,61.01 330.991,0 256,0 181.009,0 120,61.01 120,136 c 0,44.509 21.492,84.092 54.643,108.918 -30.371,9.998 -58.871,25.546 -83.813,46.062 -45.732,37.617 -77.529,90.086 -89.532,147.743 -3.762,18.066 0.744,36.622 12.363,50.908 C 25.221,503.847 42.364,512 60.693,512 H 131.5 c 11.046,0 20,-8.954 20,-20 0,-11.046 -8.954,-20 -20,-20 z M 160,136 c 0,-52.935 43.065,-96 96,-96 52.935,0 96,43.065 96,96 0,51.367 -40.554,93.438 -91.326,95.885 -1.557,-0.028 -3.114,-0.052 -4.674,-0.052 -1.564,0 -3.127,0.023 -4.689,0.051 C 200.546,229.43 160,187.362 160,136 Z"
             id="path3834"
             style="fill:#ffffff;stroke:none" />
          <path
             inkscape:connector-curvature="0"
             d="M 496.689,344.607 C 488.128,325.457 468.844,313.049 447.513,313 h -62.372 c -0.045,0 -0.087,0 -0.133,0 -22.5,0 -42.13,13.26 -50.029,33.807 -1.051,2.734 -2.336,6.178 -3.677,10.193 H 200.356 c -5.407,0 -10.583,2.189 -14.35,6.068 l -34.356,35.388 c -7.567,7.794 -7.529,20.203 0.085,27.95 l 35,35.612 c 3.76,3.826 8.9,5.981 14.264,5.981 h 65 c 11.046,0 20,-8.954 20,-20 0,-11.046 -8.954,-20 -20,-20 H 209.385 L 193.957,412.301 208.814,397 h 137.491 c 9.214,0 17.235,-6.295 19.426,-15.244 1.618,-6.607 3.648,-12.959 6.584,-20.596 1.936,-5.036 6.798,-8.16 12.741,-8.16 0.013,0 0.026,0 0.039,0 h 62.371 c 5.656,0.013 10.524,3.053 12.705,7.932 5.369,12.012 11.78,30.608 11.828,50.986 0.048,20.529 -6.356,39.551 -11.739,51.894 -2.17,4.978 -7.079,8.188 -12.56,8.188 -0.011,0 -0.022,0 -0.033,0 h -63.125 c -5.533,-0.013 -10.716,-3.573 -12.896,-8.858 -2.339,-5.671 -4.366,-12.146 -6.197,-19.797 -2.571,-10.742 -13.367,-17.366 -24.105,-14.796 -10.743,2.571 -17.367,13.364 -14.796,24.106 2.321,9.699 4.978,18.118 8.121,25.738 8.399,20.364 27.939,33.555 49.827,33.606 h 63.125 c 0.043,0 0.083,0 0.126,0 21.351,-0.001 40.647,-12.63 49.18,-32.201 6.912,-15.851 15.137,-40.511 15.072,-67.975 -0.064,-27.389 -8.361,-51.67 -15.31,-67.216 z"
             id="path3836"
             style="fill:#ffffff;stroke:none" />
          <circle
             cx="431"
             cy="412"
             r="20"
             id="circle3838"
             style="fill:#ffffff;stroke:none" />
        </g>
      </g>
    </g>
  </g>
</svg>
